<svg width="16" height="16" viewBox="0 0 16 16" fill="none" xmlns="http://www.w3.org/2000/svg">
<path fill-rule="evenodd" clip-rule="evenodd" d="M8 15C11.866 15 15 11.866 15 8C15 4.134 11.866 1 8 1C4.134 1 1 4.134 1 8C1 11.866 4.134 15 8 15ZM8.525 3.8C8.525 3.51005 8.28994 3.275 8 3.275C7.71006 3.275 7.475 3.51005 7.475 3.8V4.02171C6.3337 4.22607 5.375 5.08353 5.375 6.25C5.375 7.59204 6.64396 8.525 8 8.525C8.96355 8.525 9.575 9.15899 9.575 9.75C9.575 10.341 8.96355 10.975 8 10.975C7.03645 10.975 6.425 10.341 6.425 9.75C6.425 9.46006 6.18995 9.225 5.9 9.225C5.61005 9.225 5.375 9.46006 5.375 9.75C5.375 10.9165 6.3337 11.7739 7.475 11.9783V12.2C7.475 12.4899 7.71006 12.725 8 12.725C8.28994 12.725 8.525 12.4899 8.525 12.2V11.9783C9.66628 11.7739 10.625 10.9165 10.625 9.75C10.625 8.40796 9.35604 7.475 8 7.475C7.03645 7.475 6.425 6.84101 6.425 6.25C6.425 5.65901 7.03645 5.025 8 5.025C8.96355 5.025 9.575 5.65901 9.575 6.25C9.575 6.53995 9.81006 6.775 10.1 6.775C10.3899 6.775 10.625 6.53995 10.625 6.25C10.625 5.08353 9.66628 4.22607 8.525 4.02171V3.8Z" fill="#6B7280"/>
</svg>
