<svg width="80" height="80" viewBox="0 0 80 80" fill="none" xmlns="http://www.w3.org/2000/svg">
<path fill-rule="evenodd" clip-rule="evenodd" d="M23.8688 5.28496C28.318 3.37793 33.2185 2.32202 38.3657 2.32202C56.8661 2.32202 72.1804 15.9633 74.799 33.7361C74.8827 33.7323 74.9669 33.7304 75.0515 33.7304C75.1363 33.7304 75.2206 33.7323 75.3044 33.7361C72.6817 15.6861 57.1428 1.82202 38.3657 1.82202C33.1327 1.82202 28.1512 2.89882 23.6307 4.84293C23.7178 4.98535 23.7974 5.13288 23.8688 5.28496ZM15.9634 9.91669C15.8661 9.78096 15.776 9.63972 15.6936 9.49351C6.78344 16.3154 1.03711 27.0619 1.03711 39.1506C1.03711 45.2883 2.51843 51.0801 5.14306 56.1878C5.27903 56.0898 5.41871 55.9966 5.56185 55.9085C2.98873 50.8816 1.53711 45.1856 1.53711 39.1506C1.53711 27.2392 7.19192 16.6485 15.9634 9.91669ZM38.3657 76.4792C28.8649 76.4792 20.1931 72.9298 13.604 67.0846C13.7326 66.9769 13.8573 66.8645 13.9778 66.7478C20.4734 72.4924 29.0124 75.9792 38.3657 75.9792C56.7967 75.9792 72.0656 62.44 74.7691 44.7648C74.8626 44.7695 74.9568 44.7719 75.0515 44.7719C75.1262 44.7719 75.2005 44.7704 75.2745 44.7674C72.5654 62.7186 57.0725 76.4792 38.3657 76.4792Z" fill="#BABABA"/>
<path d="M23.8689 5.28494L23.7332 5.34875L23.7948 5.47991L23.928 5.42281L23.8689 5.28494ZM74.7991 33.7361L74.6507 33.758L74.6705 33.892L74.8059 33.886L74.7991 33.7361ZM75.3045 33.7361L75.2978 33.886L75.4791 33.8942L75.453 33.7146L75.3045 33.7361ZM23.6308 4.84291L23.5715 4.70511L23.4125 4.77349L23.5028 4.92116L23.6308 4.84291ZM15.6937 9.49349L15.8244 9.41986L15.7396 9.26941L15.6025 9.37439L15.6937 9.49349ZM15.9635 9.91667L16.0549 10.0357L16.1701 9.94726L16.0854 9.82926L15.9635 9.91667ZM5.14316 56.1878L5.00975 56.2564L5.08944 56.4115L5.23088 56.3095L5.14316 56.1878ZM5.56195 55.9085L5.64058 56.0362L5.75864 55.9636L5.69547 55.8401L5.56195 55.9085ZM13.6041 67.0846L13.5078 66.9696L13.3743 67.0814L13.5045 67.1968L13.6041 67.0846ZM13.9779 66.7478L14.0772 66.6354L13.9732 66.5434L13.8735 66.6401L13.9779 66.7478ZM74.7692 44.7648L74.7767 44.615L74.6414 44.6081L74.6209 44.7421L74.7692 44.7648ZM75.2746 44.7674L75.4229 44.7898L75.45 44.6104L75.2686 44.6176L75.2746 44.7674ZM38.3658 2.172C33.1979 2.172 28.2773 3.23219 23.8098 5.14707L23.928 5.42281C28.3588 3.52364 33.2393 2.472 38.3658 2.472V2.172ZM74.9475 33.7142C72.3182 15.8689 56.9417 2.172 38.3658 2.172V2.472C56.7907 2.472 72.0428 16.0577 74.6507 33.758L74.9475 33.7142ZM75.0516 33.5804C74.9647 33.5804 74.8783 33.5824 74.7924 33.5863L74.8059 33.886C74.8873 33.8823 74.9692 33.8804 75.0516 33.8804V33.5804ZM75.3113 33.5863C75.2252 33.5824 75.1386 33.5804 75.0516 33.5804V33.8804C75.1341 33.8804 75.2162 33.8823 75.2978 33.886L75.3113 33.5863ZM38.3658 1.972C57.0673 1.972 72.544 15.7803 75.1561 33.7577L75.453 33.7146C72.8197 15.5919 57.2185 1.672 38.3658 1.672V1.972ZM23.6901 4.9807C28.1922 3.0445 33.1535 1.972 38.3658 1.972V1.672C33.112 1.672 28.1104 2.7531 23.5715 4.70511L23.6901 4.9807ZM24.0047 5.22114C23.9309 5.06408 23.8487 4.91172 23.7588 4.76465L23.5028 4.92116C23.5871 5.05894 23.664 5.20165 23.7332 5.34875L24.0047 5.22114ZM15.563 9.56712C15.6481 9.7181 15.7411 9.86395 15.8416 10.0041L16.0854 9.82926C15.9913 9.69794 15.9041 9.56129 15.8244 9.41986L15.563 9.56712ZM1.18721 39.1506C1.18721 27.1106 6.9102 16.4074 15.7849 9.61259L15.6025 9.37439C6.65687 16.2235 0.887207 27.0133 0.887207 39.1506H1.18721ZM5.27658 56.1193C2.66259 51.0322 1.18721 45.2639 1.18721 39.1506H0.887207C0.887207 45.3127 2.37447 51.1279 5.00975 56.2564L5.27658 56.1193ZM5.48332 55.7808C5.33707 55.8708 5.19436 55.966 5.05545 56.0661L5.23088 56.3095C5.36391 56.2136 5.50056 56.1224 5.64058 56.0362L5.48332 55.7808ZM1.38721 39.1506C1.38721 45.21 2.84473 50.9293 5.42843 55.9768L5.69547 55.8401C3.13293 50.834 1.68721 45.1613 1.68721 39.1506H1.38721ZM15.8722 9.79768C7.0653 16.5567 1.38721 27.1906 1.38721 39.1506H1.68721C1.68721 27.2878 7.31874 16.7403 16.0549 10.0357L15.8722 9.79768ZM13.5045 67.1968C20.12 73.0654 28.8269 76.6292 38.3658 76.6292V76.3292C28.9031 76.3292 20.2663 72.7941 13.7036 66.9724L13.5045 67.1968ZM13.8735 66.6401C13.7556 66.7543 13.6336 66.8642 13.5078 66.9696L13.7004 67.1996C13.8318 67.0895 13.9592 66.9747 14.0823 66.8555L13.8735 66.6401ZM38.3658 75.8292C29.0505 75.8292 20.5465 72.3567 14.0772 66.6354L13.8785 66.8602C20.4005 72.6281 28.9745 76.1292 38.3658 76.1292V75.8292ZM74.6209 44.7421C71.9284 62.3452 56.7216 75.8292 38.3658 75.8292V76.1292C56.8721 76.1292 72.2029 62.5348 74.9174 44.7874L74.6209 44.7421ZM75.0516 44.6219C74.9594 44.6219 74.8677 44.6195 74.7767 44.615L74.7616 44.9146C74.8577 44.9194 74.9543 44.9219 75.0516 44.9219V44.6219ZM75.2686 44.6176C75.1966 44.6204 75.1243 44.6219 75.0516 44.6219V44.9219C75.1282 44.9219 75.2046 44.9203 75.2805 44.9173L75.2686 44.6176ZM38.3658 76.6292C57.1479 76.6292 72.703 62.8133 75.4229 44.7898L75.1262 44.7451C72.4281 62.624 56.9973 76.3292 38.3658 76.3292V76.6292Z" fill="#BABABA"/>
<path d="M74.9949 43.0278C77.0502 43.0278 78.7163 41.3617 78.7163 39.3064C78.7163 37.2511 77.0502 35.585 74.9949 35.585C72.9396 35.585 71.2734 37.2511 71.2734 39.3064C71.2734 41.3617 72.9396 43.0278 74.9949 43.0278Z" stroke="#BABABA" stroke-width="0.7" stroke-miterlimit="10"/>
<path d="M19.6864 10.3789C21.4301 10.3789 22.8436 8.96536 22.8436 7.22172C22.8436 5.47808 21.4301 4.06458 19.6864 4.06458C17.9428 4.06458 16.5293 5.47808 16.5293 7.22172C16.5293 8.96536 17.9428 10.3789 19.6864 10.3789Z" stroke="#BABABA" stroke-width="0.7" stroke-miterlimit="10"/>
<path d="M9.22215 66.6854C11.952 66.6854 14.165 64.4724 14.165 61.7425C14.165 59.0127 11.952 56.7997 9.22215 56.7997C6.49229 56.7997 4.2793 59.0127 4.2793 61.7425C4.2793 64.4724 6.49229 66.6854 9.22215 66.6854Z" stroke="#BABABA" stroke-width="0.7" stroke-miterlimit="10"/>
<path fill-rule="evenodd" clip-rule="evenodd" d="M61.5188 45.1504C61.4898 45.2271 61.4602 45.3037 61.4299 45.3802C61.0768 46.2735 60.6524 47.1211 60.1638 47.9208L58.917 51.0728C55.0323 60.9006 42.3459 65.1688 30.5199 60.4966C18.7012 55.8243 12.3615 44.0345 16.2463 34.2067C16.2507 34.1954 16.2544 34.1839 16.2571 34.1722L17.464 31.1209C17.655 30.1781 17.93 29.2444 18.2926 28.327C18.3234 28.2492 18.3547 28.1718 18.3865 28.0947C18.2594 28.0474 18.1172 28.1104 18.067 28.2371L15.7813 34.0157C15.7768 34.027 15.7732 34.0387 15.7704 34.0505C11.778 44.2026 18.3515 56.2238 30.3362 60.9616C42.3388 65.7036 55.3667 61.4146 59.382 51.2567L61.6677 45.4782C61.6921 45.4165 61.691 45.3477 61.6646 45.2868C61.6383 45.226 61.5888 45.1781 61.5272 45.1537L61.5188 45.1504Z" fill="#BABABA"/>
<path d="M61.5188 45.1504L61.5739 45.0109C61.5366 44.9962 61.4949 44.997 61.4581 45.0132C61.4214 45.0295 61.3927 45.0598 61.3785 45.0974L61.5188 45.1504ZM60.1638 47.9208L60.0358 47.8426C60.0313 47.8499 60.0275 47.8576 60.0243 47.8656L60.1638 47.9208ZM58.917 51.0728L59.0557 51.1302L59.0565 51.128L58.917 51.0728ZM58.917 51.0728L58.7784 51.0155L58.7775 51.0177L58.917 51.0728ZM16.2571 34.1722L16.1176 34.117C16.115 34.1237 16.1128 34.1307 16.1111 34.1377L16.2571 34.1722ZM17.464 31.1209L17.6035 31.1761C17.6068 31.1679 17.6093 31.1594 17.6111 31.1507L17.464 31.1209ZM18.3865 28.0947L18.5252 28.1519C18.5407 28.1143 18.5403 28.072 18.524 28.0347C18.5077 27.9974 18.4769 27.9683 18.4388 27.9541L18.3865 28.0947ZM15.7704 34.0505L15.91 34.1054C15.9126 34.0987 15.9148 34.0918 15.9164 34.0848L15.7704 34.0505ZM61.5694 45.4353C61.5999 45.3582 61.6298 45.2809 61.6591 45.2035L61.3785 45.0974C61.3497 45.1734 61.3204 45.2492 61.2904 45.325L61.5694 45.4353ZM60.2918 47.999C60.7848 47.1921 61.2131 46.3367 61.5694 45.4353L61.2904 45.325C60.9405 46.2103 60.5199 47.0502 60.0358 47.8426L60.2918 47.999ZM59.0565 51.128L60.3033 47.976L60.0243 47.8656L58.7775 51.0177L59.0565 51.128ZM30.4648 60.6361C42.3439 65.3293 55.1326 61.0548 59.0565 51.128L58.7775 51.0177C54.9319 60.7465 42.3479 65.0083 30.5751 60.357L30.4648 60.6361ZM16.1068 34.1515C12.1829 44.0783 18.593 55.9428 30.4648 60.6361L30.5751 60.357C18.8095 55.7058 12.5401 43.9907 16.3858 34.2618L16.1068 34.1515ZM16.1111 34.1377C16.11 34.1424 16.1086 34.147 16.1068 34.1515L16.3858 34.2618C16.3929 34.2438 16.3987 34.2254 16.4031 34.2066L16.1111 34.1377ZM17.3246 31.0657L16.1176 34.117L16.3966 34.2273L17.6035 31.1761L17.3246 31.0657ZM18.1531 28.2719C17.7872 29.1976 17.5098 30.1397 17.317 31.0911L17.6111 31.1507C17.8003 30.2165 18.0727 29.2913 18.4321 28.3822L18.1531 28.2719ZM18.2479 28.0375C18.2158 28.1153 18.1842 28.1934 18.1531 28.2719L18.4321 28.3822C18.4626 28.3051 18.4936 28.2283 18.5252 28.1519L18.2479 28.0375ZM18.2065 28.2923C18.2266 28.2416 18.2835 28.2164 18.3343 28.2353L18.4388 27.9541C18.2353 27.8784 18.0078 27.9791 17.9275 28.1819L18.2065 28.2923ZM15.9208 34.0709L18.2065 28.2923L17.9275 28.1819L15.6418 33.9605L15.9208 34.0709ZM15.9164 34.0848C15.9175 34.08 15.919 34.0754 15.9208 34.0709L15.6418 33.9605C15.6347 33.9787 15.6288 33.9973 15.6244 34.0162L15.9164 34.0848ZM30.3919 60.8223C18.4602 56.1054 11.9565 44.1585 15.91 34.1054L15.6308 33.9956C11.5994 44.2467 18.2429 56.3421 30.2805 61.1009L30.3919 60.8223ZM59.2425 51.2015C55.2664 61.2604 42.3416 65.5434 30.3919 60.8223L30.2805 61.1009C42.336 65.8638 55.4671 61.5689 59.5215 51.3118L59.2425 51.2015ZM61.5282 45.423L59.2425 51.2015L59.5215 51.3118L61.8072 45.5333L61.5282 45.423ZM61.527 45.3465C61.5375 45.3708 61.538 45.3983 61.5282 45.423L61.8072 45.5333C61.8462 45.4347 61.8444 45.3246 61.8023 45.2272L61.527 45.3465ZM61.472 45.2932C61.4967 45.303 61.5164 45.3221 61.527 45.3465L61.8023 45.2272C61.7601 45.1299 61.681 45.0533 61.5823 45.0142L61.472 45.2932ZM61.4636 45.2899L61.472 45.2932L61.5823 45.0142L61.5739 45.0109L61.4636 45.2899Z" fill="#BABABA"/>
<path d="M61.4302 45.3802C65.3794 35.3905 58.9242 23.4748 47.0121 18.7657C35.1001 14.0566 22.2421 18.3374 18.2929 28.327C14.3438 38.3167 20.799 50.2324 32.711 54.9415C44.6231 59.6506 57.4811 55.3698 61.4302 45.3802Z" stroke="#BABABA" stroke-width="0.7" stroke-linecap="round" stroke-linejoin="round"/>
<path d="M40.5078 62.6144C48.8792 62.543 56.315 58.3359 59.1507 51.1644L61.4364 45.3859C61.4364 45.3859 60.3947 47.8334 59.5809 49.1228C58.7672 50.4123 56.8463 52.0612 56.8463 52.0612C56.8463 52.0612 54.228 54.5631 49.8413 55.8647C47.4148 56.5847 43.4902 57.1566 43.4902 57.1566L40.5078 62.6216V62.6144Z" fill="#BABABA" stroke="#BABABA" stroke-width="0.7" stroke-linecap="round" stroke-linejoin="round"/>
<path d="M45.8189 21.7884C55.8278 25.7452 61.1537 35.709 57.8847 43.9782C54.6157 52.2475 43.9164 55.8762 33.9075 51.9194C23.8986 47.9627 18.5727 37.9989 21.8417 29.7297C25.1107 21.4604 35.81 17.8317 45.8189 21.7884Z" stroke="#BABABA" stroke-width="0.7"/>
<path d="M46.4376 32.3034C47.4862 32.7961 48.5726 32.5181 49.0085 31.6464C49.4444 30.7747 48.9959 29.7767 47.9473 29.284L40.3546 25.7214C39.306 25.2287 38.1059 25.5319 37.7837 26.3783L33.2483 35.4238L31.3596 31.2295C30.9364 30.2883 29.7489 29.7704 28.7761 30.0167C27.7465 30.2757 27.298 31.2674 27.7023 32.1581L33.621 45.3221C34.0442 46.2633 35.2318 46.7812 36.2045 46.5349C37.2342 46.2759 37.6827 45.2842 37.2784 44.3935L35.3707 40.1424L46.2734 45.2589C47.3219 45.7516 48.5221 45.4484 48.8443 44.602L52.0026 38.3042C52.4385 37.4325 51.99 36.4345 50.9414 35.9418C49.8928 35.4491 48.8064 35.727 48.3705 36.5987L45.9828 41.3552L36.8804 37.123L40.6768 29.5493L46.4313 32.2907L46.4376 32.3034Z" fill="#00C288"/>
<path d="M41.2528 36.0813C41.7013 37.0794 42.9141 37.6479 44.0006 37.3699C45.0871 37.092 45.5924 36.0877 45.1439 35.0896C44.6954 34.0916 43.4826 33.5231 42.3962 33.801C41.2781 34.1421 40.8296 35.1338 41.2528 36.0813Z" fill="#00C288"/>
</svg>
