<svg width="16" height="16" viewBox="0 0 16 16" fill="none" xmlns="http://www.w3.org/2000/svg">
<path d="M5.33097 7.48145L0.0495 13.4145C0.0359687 13.3548 0.015625 13.297 0.015625 13.2316V2.76842C0.015625 2.68901 0.0378125 2.61726 0.058 2.54517L5.33097 7.48145ZM15.4371 2.04764C15.3984 2.03898 15.3613 2.02026 15.3187 2.02026H0.681844C0.641313 2.02026 0.605094 2.03898 0.564062 2.04764L8.00034 9.00808L15.4371 2.04764ZM8.21275 9.78192C8.15169 9.84033 8.07612 9.8687 8.00034 9.8687C7.92475 9.8687 7.84903 9.84033 7.78862 9.78192L5.84456 7.96264L0.5205 13.942C0.573563 13.9584 0.625625 13.9798 0.681844 13.9798H15.3187C15.3777 13.9798 15.4291 13.9584 15.4825 13.942L10.1588 7.96264L8.21275 9.78192ZM10.6717 7.48145L15.9523 13.4138C15.9667 13.3541 15.9843 13.2964 15.9843 13.2316V2.76842C15.9843 2.69033 15.965 2.61726 15.945 2.54551L10.6717 7.48145Z" fill="#6B7280"/>
</svg>
