<svg width="800" height="800" viewBox="0 0 800 800" fill="none" xmlns="http://www.w3.org/2000/svg">
<path d="M400.001 66.667C334.074 66.667 269.628 86.2167 214.811 122.844C159.995 159.471 117.271 211.53 92.0416 272.439C66.8124 333.348 60.2113 400.37 73.073 465.03C85.9348 529.691 117.682 589.085 164.299 635.703C210.917 682.32 270.311 714.067 334.971 726.929C399.632 739.79 466.654 733.189 527.563 707.96C588.471 682.731 640.531 640.007 677.158 585.19C713.785 530.374 733.335 465.927 733.335 400C733.335 356.226 724.713 312.881 707.961 272.439C691.21 231.997 666.657 195.251 635.704 164.298C604.751 133.345 568.004 108.792 527.563 92.0405C487.121 75.2889 443.775 66.667 400.001 66.667ZM589.201 341.234L389.201 524.567C382.869 530.373 374.54 533.51 365.951 533.324C357.361 533.138 349.176 529.642 343.101 523.567L243.101 423.567C239.918 420.492 237.378 416.814 235.631 412.747C233.884 408.68 232.965 404.306 232.926 399.88C232.888 395.454 233.731 391.065 235.407 386.969C237.083 382.872 239.559 379.15 242.688 376.02C245.818 372.891 249.54 370.416 253.636 368.74C257.733 367.064 262.122 366.22 266.548 366.259C270.974 366.297 275.348 367.217 279.415 368.964C283.482 370.711 287.16 373.25 290.235 376.434L367.668 453.867L544.135 292.1C550.65 286.124 559.273 282.981 568.106 283.362C576.939 283.744 585.259 287.618 591.235 294.134C597.211 300.649 600.354 309.272 599.973 318.105C599.592 326.938 595.717 335.257 589.201 341.234Z" fill="#33BA79"/>
</svg>
